<?xml version="1.0" encoding="utf-8"?>
<!-- Generator: Adobe Illustrator 19.2.0, SVG Export Plug-In . SVG Version: 6.00 Build 0)  -->
<svg version="1.1" id="Calque_1" xmlns="http://www.w3.org/2000/svg" xmlns:xlink="http://www.w3.org/1999/xlink" x="0px" y="0px"
	 viewBox="0 0 340.5 149" style="enable-background:new 0 0 340.5 149;" xml:space="preserve">
<style type="text/css">
	.st0{fill:#82F2CE;}
	.st1{opacity:0.69;}
	.st2{opacity:0.37;}
	.st3{opacity:0.47;}
	.st4{fill:#482D7C;}
</style>
<rect x="385.8" class="st0" width="340.5" height="149"/>
<g id="FOND">
</g>
<g id="Layer_1">
	<g id="New_Symbol_4" class="st1">
	</g>
	<g id="New_Symbol_3_1_" class="st2">
	</g>
	<g id="New_Symbol_3" class="st2">
	</g>
	<g id="New_Symbol_1_6_">
	</g>
	<g id="New_Symbol_1_5_" class="st3">
	</g>
	<g id="New_Symbol_1_4_">
	</g>
	<g id="New_Symbol_1_3_">
	</g>
	<g id="New_Symbol_1_2_">
	</g>
	<g id="New_Symbol_1_1_">
	</g>
	<g id="New_Symbol_1">
	</g>
	<g id="New_Symbol">
		<g id="New_Symbol_11">
		</g>
		<g id="New_Symbol_16">
		</g>
		<g id="New_Symbol_17">
		</g>
		<g id="New_Symbol_15">
		</g>
		<g id="New_Symbol_12">
		</g>
		<g id="New_Symbol_14">
		</g>
		<g id="New_Symbol_13">
		</g>
		<g id="New_Symbol_10">
		</g>
		<g id="New_Symbol_7">
		</g>
		<g id="New_Symbol_4_1_">
		</g>
		<g id="New_Symbol_5">
		</g>
		<g id="New_Symbol_8">
		</g>
		<g id="New_Symbol_1_7_">
		</g>
		<g id="New_Symbol_2">
		</g>
		<g id="New_Symbol_6">
		</g>
		<g id="New_Symbol_4_2_">
		</g>
		<g id="New_Symbol_5_1_">
		</g>
		<g id="New_Symbol_8_1_">
		</g>
		<g id="New_Symbol_1_8_">
		</g>
		<g id="New_Symbol_7_1_">
		</g>
		<g id="New_Symbol_2_1_">
		</g>
		<g id="New_Symbol_6_1_">
		</g>
		<g id="New_Symbol_11_1_">
		</g>
		<g id="New_Symbol_16_1_">
		</g>
		<g id="New_Symbol_17_1_">
		</g>
		<g id="New_Symbol_15_1_">
		</g>
		<g id="New_Symbol_12_1_">
		</g>
		<g id="New_Symbol_14_1_">
		</g>
		<g id="New_Symbol_13_1_">
		</g>
		<g id="New_Symbol_10_1_">
			<g id="New_Symbol_4_3_">
			</g>
			<g id="New_Symbol_5_2_">
			</g>
			<g id="New_Symbol_1_9_">
			</g>
			<g id="New_Symbol_2_2_">
			</g>
			<g id="New_Symbol_16_2_">
			</g>
			<g id="New_Symbol_17_2_">
			</g>
			<g id="New_Symbol_15_2_">
			</g>
			<g id="New_Symbol_12_2_">
			</g>
			<g id="New_Symbol_14_2_">
			</g>
			<g id="New_Symbol_10_2_">
			</g>
			<g id="New_Symbol_8_2_">
			</g>
		</g>
	</g>
	<g id="New_Symbol_4_4_">
	</g>
	<g>
		<path class="st4" d="M578.8-92.3L578.8-92.3l0.6-0.8l1.1-1.9l0.5-0.2l-0.3-0.6l1.8-2.9l1.6,0.3l1,0.3l-0.2,5l-0.6,0.8l0.3,0.5
			l0.3,10.6l-0.2,2.1l0.2,1.8v1.1l0.2,2.1l-2.8,0.1l-0.8-0.5l-0.1-1.5l0.2-2.2v-3.5l0.3-0.6l-0.3-0.3l-0.2-1.6l0.2-7.2l-0.2-1.3
			l-0.3,0.5l-0.2,1v0.3l-0.5,0.8L580-89l-1.1,0.2h-1l-0.8-1.6l-0.2-0.4l-0.2-0.5l-0.6-1.4v2.2l0,0l0,0v4.6l-0.2,0.6l0.2,4.6v4.8v1.4
			h-3l-0.3-1l0.5-1.3l-0.3-0.8V-78v-0.8l0.2-9.1l0.5-0.6l-0.5-0.3v-3l-0.2-1.6l-0.2-1.6l0.3-0.5v-0.2l-0.2-0.5v-0.3v-1.9l1.4-0.2
			l1.3-0.2l1.4,3L578.8-92.3z"/>
		<path class="st4" d="M596.2-81.2h-0.5l0,0l-0.6,0.5l-2.2,0.6l-0.3,0.2l-0.7,0.3l-0.3,2.4l-0.3,0.3l0.2,1l-0.3,2.2L589-74l-1.1-0.8
			l1-4l0.3-2.1l0.3-0.3v-0.6l0.6-4.1l0.2-0.6l0.2-0.6v-0.6l1-4.5l0.6-0.8l-0.3-0.5l0.1-1.2l0.3-1.4l0.3-2.1l2.7-0.2l0.7,0.3v1.1
			l0.2,0.3l0.2,0.3l1.1,5.1l-0.2,0.6l0.3,0.3l1.6,8v0.5l0.8,3l0.3,2.1l-0.2,0.3l0.5,0.5l0.3,1.4l-2.4,0.8h-0.5l-0.6-0.2l-0.5-4.1
			l-0.2-1l0.3-0.3l-0.3-0.2l-0.3-1.1L596.2-81.2z M592.9-85.2L592.9-85.2l-0.3,2.1v0.1l2.1-0.6l1-0.2l-0.8-3.5l-0.1-1.7l-0.2-0.6
			l-0.5-3.5l-0.6,4l-0.3,0.1l0.2,0.5L592.9-85.2z"/>
		<path class="st4" d="M605.6-98.6l1.3,0.5l-0.4,8.1v1.6v1l0.2-0.3l0.5-1.3l0.6-1l1.3-3.2l0.6-1.4l1-1l-0.2-0.8l0.8-2.2l2.1,0.8
			l1,0.8l-1,1.8l-2.1,3.3v0.2l0.2,0.2l-2.4,4.5l0.2,0.3l1.9,4.5l1.1,2.5l1.1,1.9l-0.2,0.5l0.5,0.2l1,2.1l-2.4,1.3h-0.8l-1-2.4
			l-1.8-4l0.2-0.5l-1.1-1.8l0,0l-1.3-2.9v5.4l0.2,1.6v1.6v0.3l0.2,0.6v1.8h-1.8h-1.8v-3.5h0.2v-0.2l0.6-1.3l-0.3-0.5V-80v-0.2
			l0.2-7.2l-0.3-1.6l-0.3-4.3V-96l-0.3-2.4L605.6-98.6z"/>
		<path class="st4" d="M617.5-89.3l-0.2-6.5l0.3-0.6l-0.3-0.2l-0.2-1.6l1.6-0.2l2.2,0.2l-0.2,2.4l-0.2,0.8l-0.2,4.3l-0.1,1.7
			l0.2,1.3v0.8l-0.3,0.6l0.3,0.2v9.2v0.5v0.6v1.3l-1.1,0.5h-0.6h-1.6l0.5-2.9l0.3-0.6l-0.3-0.6v-1.1v-6.2l0.2-1l0.2-1.8L617.5-89.3z
			"/>
	</g>
</g>
<g id="Layer_1_1_">
	<g id="New_Symbol_4_9_" class="st1">
	</g>
	<g id="New_Symbol_3_3_" class="st2">
	</g>
	<g id="New_Symbol_3_2_" class="st2">
	</g>
	<g id="New_Symbol_1_19_">
	</g>
	<g id="New_Symbol_1_18_" class="st3">
	</g>
	<g id="New_Symbol_1_17_">
	</g>
	<g id="New_Symbol_1_16_">
	</g>
	<g id="New_Symbol_1_15_">
	</g>
	<g id="New_Symbol_1_14_">
	</g>
	<g id="New_Symbol_1_13_">
	</g>
	<g id="New_Symbol_1_">
		<g id="New_Symbol_11_3_">
		</g>
		<g id="New_Symbol_16_5_">
		</g>
		<g id="New_Symbol_17_5_">
		</g>
		<g id="New_Symbol_15_5_">
		</g>
		<g id="New_Symbol_12_5_">
		</g>
		<g id="New_Symbol_14_5_">
		</g>
		<g id="New_Symbol_13_3_">
		</g>
		<g id="New_Symbol_10_5_">
		</g>
		<g id="New_Symbol_7_3_">
		</g>
		<g id="New_Symbol_4_8_">
		</g>
		<g id="New_Symbol_5_5_">
		</g>
		<g id="New_Symbol_8_5_">
		</g>
		<g id="New_Symbol_1_12_">
		</g>
		<g id="New_Symbol_2_5_">
		</g>
		<g id="New_Symbol_6_3_">
		</g>
		<g id="New_Symbol_4_7_">
		</g>
		<g id="New_Symbol_5_4_">
		</g>
		<g id="New_Symbol_8_4_">
		</g>
		<g id="New_Symbol_1_11_">
		</g>
		<g id="New_Symbol_7_2_">
		</g>
		<g id="New_Symbol_2_4_">
		</g>
		<g id="New_Symbol_6_2_">
		</g>
		<g id="New_Symbol_11_2_">
		</g>
		<g id="New_Symbol_16_4_">
		</g>
		<g id="New_Symbol_17_4_">
		</g>
		<g id="New_Symbol_15_4_">
		</g>
		<g id="New_Symbol_12_4_">
		</g>
		<g id="New_Symbol_14_4_">
		</g>
		<g id="New_Symbol_13_2_">
		</g>
		<g id="New_Symbol_10_3_">
			<g id="New_Symbol_4_6_">
			</g>
			<g id="New_Symbol_5_3_">
			</g>
			<g id="New_Symbol_1_10_">
			</g>
			<g id="New_Symbol_2_3_">
			</g>
			<g id="New_Symbol_16_3_">
			</g>
			<g id="New_Symbol_17_3_">
			</g>
			<g id="New_Symbol_15_3_">
			</g>
			<g id="New_Symbol_12_3_">
			</g>
			<g id="New_Symbol_14_3_">
			</g>
			<g id="New_Symbol_10_4_">
			</g>
			<g id="New_Symbol_8_3_">
			</g>
		</g>
	</g>
	<g id="New_Symbol_4_5_">
	</g>
	<g>
		<path class="st4" d="M102.4,48.3L102.4,48.3l2.2-2.9l4-7l1.8-0.7l-1.1-2.2l6.6-10.7l5.9,1.1l3.7,1.1l-0.7,18.4l-2.2,2.9l1.1,1.8
			l1.1,39l-0.7,7.7l0.7,6.6v4l0.7,7.7l-10.3,0.4l-2.9-1.8l-0.4-5.5l0.7-8.1V87.3l1.1-2.2l-1.1-1.1l-0.7-5.9l0.7-26.5l-0.7-4.8
			l-1.1,1.8l-0.7,3.7v1.1l-1.8,2.9l-1.5,4l-4,0.7h-3.7l-2.9-5.9l-0.7-1.5L94.7,52l-2.2-5.1v8.1l0,0l0,0v16.9L91.7,74l0.7,16.9v17.6
			v5.1h-11l-1.1-3.7l1.8-4.8l-1.1-2.9v-1.5v-2.9l0.7-33.4l1.8-2.2l-1.8-1.1v-11l-0.7-5.9l-0.7-5.9l1.1-1.8v-0.7L80.7,34v-1.1v-7
			l5.1-0.7l4.8-0.7l5.1,11L102.4,48.3z"/>
		<path class="st4" d="M166.3,89.1h-1.8l0,0l-2.2,1.8l-8.1,2.2l-1.1,0.7l-2.6,1.1l-1.1,8.8l-1.1,1.1l0.7,3.7l-1.1,8.1l-8.1-1.1
			l-4-2.9l3.7-14.7l1.1-7.7l1.1-1.1v-2.2l2.2-15.1l0.7-2.2l0.7-2.2v-2.2l3.7-16.5l2.2-2.9l-1.1-1.8l0.4-4.4l1.1-5.1l1.1-7.7l9.9-0.7
			l2.6,1.1v4l0.7,1.1l0.7,1.1l4,18.7l-0.7,2.2l1.1,1.1l5.9,29.4v1.8l2.9,11l1.1,7.7l-0.7,1.1l1.8,1.8l1.1,5.1l-8.8,2.9h-1.8
			l-2.2-0.7l-1.8-15.1l-0.7-3.7l1.1-1.1l-1.1-0.7l-1.1-4L166.3,89.1z M154.2,74.4L154.2,74.4l-1.1,7.7v0.4l7.7-2.2l3.7-0.7
			l-2.9-12.9l-0.4-6.2l-0.7-2.2l-1.8-12.9l-2.2,14.7l-1.1,0.4l0.7,1.8L154.2,74.4z"/>
		<path class="st4" d="M200.9,25.1l4.8,1.8l-1.5,29.8v5.9v3.7l0.7-1.1l1.8-4.8l2.2-3.7l4.8-11.8l2.2-5.1l3.7-3.7l-0.7-2.9l2.9-8.1
			l7.7,2.9l3.7,2.9l-3.7,6.6l-7.7,12.1v0.7l0.7,0.7l-8.8,16.5l0.7,1.1l7,16.5l4,9.2l4,7l-0.7,1.8l1.8,0.7l3.7,7.7l-8.8,4.8h-2.9
			l-3.7-8.8l-6.6-14.7l0.7-1.8l-4-6.6l0,0L204.2,74v19.8l0.7,5.9v5.9v1.1l0.7,2.2v6.6H199h-6.6v-12.9h0.7V102l2.2-4.8l-1.1-1.8v-1.8
			v-0.7l0.7-26.5l-1.1-5.9l-1.1-15.8v-9.9l-1.1-8.8L200.9,25.1z"/>
		<path class="st4" d="M244.6,59.3l-0.7-23.9l1.1-2.2l-1.1-0.7l-0.7-5.9l5.9-0.7l8.1,0.7l-0.7,8.8l-0.7,2.9l-0.7,15.8l-0.4,6.2
			l0.7,4.8v2.9l-1.1,2.2l1.1,0.7v33.8v1.8v2.2v4.8l-4,1.8H249h-5.9l1.8-10.7l1.1-2.2l-1.1-2.2v-4V73.7l0.7-3.7l0.7-6.6L244.6,59.3z"
			/>
	</g>
</g>
<g id="Layer_1_2_">
	<g id="New_Symbol_4_14_" class="st1">
	</g>
	<g id="New_Symbol_3_5_" class="st2">
	</g>
	<g id="New_Symbol_3_4_" class="st2">
	</g>
	<g id="New_Symbol_1_29_">
	</g>
	<g id="New_Symbol_1_28_" class="st3">
	</g>
	<g id="New_Symbol_1_27_">
	</g>
	<g id="New_Symbol_1_26_">
	</g>
	<g id="New_Symbol_1_25_">
	</g>
	<g id="New_Symbol_1_24_">
	</g>
	<g id="New_Symbol_1_23_">
	</g>
	<g id="New_Symbol_2_">
		<g id="New_Symbol_11_5_">
		</g>
		<g id="New_Symbol_16_8_">
		</g>
		<g id="New_Symbol_17_8_">
		</g>
		<g id="New_Symbol_15_8_">
		</g>
		<g id="New_Symbol_12_8_">
		</g>
		<g id="New_Symbol_14_8_">
		</g>
		<g id="New_Symbol_13_5_">
		</g>
		<g id="New_Symbol_10_8_">
		</g>
		<g id="New_Symbol_7_5_">
		</g>
		<g id="New_Symbol_4_13_">
		</g>
		<g id="New_Symbol_5_8_">
		</g>
		<g id="New_Symbol_8_8_">
		</g>
		<g id="New_Symbol_1_22_">
		</g>
		<g id="New_Symbol_2_8_">
		</g>
		<g id="New_Symbol_6_5_">
		</g>
		<g id="New_Symbol_4_12_">
		</g>
		<g id="New_Symbol_5_7_">
		</g>
		<g id="New_Symbol_8_7_">
		</g>
		<g id="New_Symbol_1_21_">
		</g>
		<g id="New_Symbol_7_4_">
		</g>
		<g id="New_Symbol_2_7_">
		</g>
		<g id="New_Symbol_6_4_">
		</g>
		<g id="New_Symbol_11_4_">
		</g>
		<g id="New_Symbol_16_7_">
		</g>
		<g id="New_Symbol_17_7_">
		</g>
		<g id="New_Symbol_15_7_">
		</g>
		<g id="New_Symbol_12_7_">
		</g>
		<g id="New_Symbol_14_7_">
		</g>
		<g id="New_Symbol_13_4_">
		</g>
		<g id="New_Symbol_10_6_">
			<g id="New_Symbol_4_11_">
			</g>
			<g id="New_Symbol_5_6_">
			</g>
			<g id="New_Symbol_1_20_">
			</g>
			<g id="New_Symbol_2_6_">
			</g>
			<g id="New_Symbol_16_6_">
			</g>
			<g id="New_Symbol_17_6_">
			</g>
			<g id="New_Symbol_15_6_">
			</g>
			<g id="New_Symbol_12_6_">
			</g>
			<g id="New_Symbol_14_6_">
			</g>
			<g id="New_Symbol_10_7_">
			</g>
			<g id="New_Symbol_8_6_">
			</g>
		</g>
	</g>
	<g id="New_Symbol_4_10_">
	</g>
	<g>
		<path class="st4" d="M489.7,48.3L489.7,48.3l2.2-2.9l4-7l1.8-0.7l-1.1-2.2l6.6-10.7l5.9,1.1l3.7,1.1l-0.7,18.4l-2.2,2.9l1.1,1.8
			l1.1,39l-0.7,7.7l0.7,6.6v4l0.7,7.7l-10.3,0.4l-2.9-1.8l-0.4-5.5l0.7-8.1V87.3l1.1-2.2l-1.1-1.1l-0.7-5.9l0.7-26.5l-0.7-4.8
			l-1.1,1.8l-0.7,3.7v1.1l-1.8,2.9l-1.5,4l-4,0.7h-3.7l-2.9-5.9l-0.7-1.5L482,52l-2.2-5.1v8.1l0,0l0,0v16.9l-0.7,2.2l0.7,16.9v17.6
			v5.1h-11l-1.1-3.7l1.8-4.8l-1.1-2.9v-1.5v-2.9l0.7-33.4l1.8-2.2l-1.8-1.1v-11l-0.7-5.9l-0.7-5.9l1.1-1.8v-0.7L468,34v-1.1v-7
			l5.1-0.7l4.8-0.7l5.1,11L489.7,48.3z"/>
		<path class="st4" d="M553.7,89.1h-1.8l0,0l-2.2,1.8l-8.1,2.2l-1.1,0.7l-2.6,1.1l-1.1,8.8l-1.1,1.1l0.7,3.7l-1.1,8.1l-8.1-1.1
			l-4-2.9l3.7-14.7l1.1-7.7l1.1-1.1v-2.2l2.2-15.1l0.7-2.2l0.7-2.2v-2.2l3.7-16.5l2.2-2.9l-1.1-1.8l0.4-4.4l1.1-5.1l1.1-7.7l9.9-0.7
			l2.6,1.1v4l0.7,1.1l0.7,1.1l4,18.7l-0.7,2.2l1.1,1.1l5.9,29.4v1.8l2.9,11l1.1,7.7l-0.7,1.1l1.8,1.8l1.1,5.1l-8.8,2.9h-1.8
			l-2.2-0.7l-1.8-15.1l-0.7-3.7l1.1-1.1l-1.1-0.7l-1.1-4L553.7,89.1z M541.5,74.4L541.5,74.4l-1.1,7.7v0.4l7.7-2.2l3.7-0.7
			l-2.9-12.9l-0.4-6.2l-0.7-2.2L546,45.4l-2.2,14.7l-1.1,0.4l0.7,1.8L541.5,74.4z"/>
		<path class="st4" d="M588.2,25.1L593,27l-1.5,29.8v5.9v3.7l0.7-1.1l1.8-4.8l2.2-3.7l4.8-11.8l2.2-5.1l3.7-3.7l-0.7-2.9l2.9-8.1
			l7.7,2.9l3.7,2.9l-3.7,6.6l-7.7,12.1v0.7l0.7,0.7l-8.8,16.5l0.7,1.1l7,16.5l4,9.2l4,7l-0.7,1.8l1.8,0.7l3.7,7.7l-8.8,4.8h-2.9
			l-3.7-8.8l-6.6-14.7l0.7-1.8l-4-6.6l0,0L591.5,74v19.8l0.7,5.9v5.9v1.1l0.7,2.2v6.6h-6.6h-6.6v-12.9h0.7V102l2.2-4.8l-1.1-1.8
			v-1.8v-0.7l0.7-26.5l-1.1-5.9l-1.1-15.8v-9.9l-1.1-8.8L588.2,25.1z"/>
		<path class="st4" d="M632,59.3l-0.7-23.9l1.1-2.2l-1.1-0.7l-0.7-5.9l5.9-0.7l8.1,0.7l-0.7,8.8l-0.7,2.9l-0.7,15.8l-0.4,6.2
			l0.7,4.8v2.9l-1.1,2.2l1.1,0.7v33.8v1.8v2.2v4.8l-4,1.8h-2.2h-5.9l1.8-10.7l1.1-2.2l-1.1-2.2v-4V73.7l0.7-3.7l0.7-6.6L632,59.3z"
			/>
	</g>
</g>
<g id="Calque_56">
</g>
</svg>
